<svg width="250" height="250" xmlns="http://www.w3.org/2000/svg"><g fill="none" fill-rule="evenodd"><path d="M25 8.922a8.193 8.193 0 01-2.356.646A4.12 4.12 0 0024.448 7.3a8.271 8.271 0 01-2.607.996 4.103 4.103 0 00-6.991 3.74A11.648 11.648 0 016.392 7.75a4.072 4.072 0 00-.554 2.062 4.1 4.1 0 001.824 3.414 4.103 4.103 0 01-1.858-.515v.052a4.107 4.107 0 003.29 4.023 4.156 4.156 0 01-1.08.143c-.266 0-.522-.026-.773-.076a4.105 4.105 0 003.832 2.85 8.232 8.232 0 01-5.095 1.753A8.72 8.72 0 015 21.4a11.597 11.597 0 006.289 1.846c7.547 0 11.673-6.252 11.673-11.673l-.014-.531A8.193 8.193 0 0025 8.922z" fill="#3B4044" fill-rule="nonzero"/><path d="M50.62 65.605L10.143 89.333A4.569 4.569 0 017.762 90c-.794 0-1.588-.198-2.381-.594C3.794 88.468 3 87.085 3 85.255V37.802c0-1.829.794-3.213 2.38-4.152 1.638-.89 3.224-.866 4.763.073L50.62 57.45c1.586.89 2.38 2.25 2.38 4.078 0 1.829-.794 3.187-2.38 4.077z" stroke="#FFF" stroke-width="5"/><path d="M5 98h20v20H5V98zm4.773 6.689v5.938a.683.683 0 01-.182.59l-1.412 1.712v.225h4.002v-.225l-1.41-1.712a.708.708 0 01-.195-.59v-5.136l3.512 7.663h.408l3.017-7.663v6.108c0 .163 0 .195-.107.301l-1.085 1.054v.225h5.27v-.225l-1.048-1.029a.313.313 0 01-.12-.3v-7.557a.313.313 0 01.12-.301l1.072-1.028v-.226h-3.713l-2.647 6.603-3.01-6.603H8.348v.226l1.254 1.51a.52.52 0 01.17.44zM97.414 5c1.31 0 2.414 1.103 2.414 2.414 0 1.379-1.172 2.448-2.414 2.413-1.275.035-2.413-1.034-2.413-2.413C94.966 6.069 96.07 5 97.414 5zm1.345 19.654h-2.758c-.38 0-.69-.31-.69-.69V11.897c0-.379.276-.69.655-.69h2.793c.38 0 .69.311.69.69V24c0 .345-.31.655-.69.655zm16.207-9.24H115v8.896c0 .138-.207.344-.345.344h-3.448c-.138 0-.345-.206-.345-.344v-7.414c0-.655-.172-1.241-.586-1.655a2.343 2.343 0 00-1.69-.69c-1.275.035-2.24 1.104-2.24 2.38v7.448c0 .138-.208.275-.346.275h-3.793c-.138 0-.344-.137-.344-.275V11.517c0-.172.206-.31.344-.31h3.449c.137 0 .344.207.344.345v1.379l.345-.345c.724-1.069 2.07-1.724 3.448-1.724h.724c2.552 0 4.449 2 4.449 4.551z" fill="#3B4044" fill-rule="nonzero"/><path d="M60.5 32.8l3.13 3.2L65 34.6 60.5 30 56 34.6l1.37 1.4 3.13-3.2zm0 12.4L57.37 42 56 43.4l4.5 4.6 4.5-4.6-1.37-1.4-3.13 3.2z" fill="#373E44" fill-rule="nonzero"/><path d="M49.042 5h-8.084A5.965 5.965 0 0035 10.958v8.084A5.965 5.965 0 0040.958 25h8.084A5.965 5.965 0 0055 19.042v-8.084A5.965 5.965 0 0049.042 5zm3.946 14.042a3.946 3.946 0 01-3.946 3.946h-8.084a3.946 3.946 0 01-3.946-3.946v-8.084a3.946 3.946 0 013.946-3.946h8.084a3.946 3.946 0 013.946 3.946v8.084zM45 9.827A5.179 5.179 0 0150.173 15 5.179 5.179 0 0145 20.173 5.179 5.179 0 0139.827 15 5.179 5.179 0 0145 9.827zm0 8.334a3.16 3.16 0 100-6.322 3.16 3.16 0 000 6.322zm5.183-7.055a1.24 1.24 0 110-2.48 1.24 1.24 0 010 2.48zM80.406 5.004L77.812 5c-2.913 0-4.796 1.932-4.796 4.922v2.27h-2.608a.408.408 0 00-.408.407v3.289c0 .225.183.407.408.407h2.608v8.297c0 .226.182.408.407.408h3.403a.408.408 0 00.407-.408v-8.297h3.05a.408.408 0 00.407-.407l.002-3.289a.408.408 0 00-.409-.408h-3.05v-1.923c0-.925.22-1.394 1.425-1.394l1.747-.001a.408.408 0 00.408-.408V5.412a.408.408 0 00-.407-.408zM144.172 7.83c-.484-.522-1.185-.8-2.083-.826-2.536-.082-4.329 1.267-5.33 4.008a.407.407 0 00.49.533c.288-.079.573-.119.849-.119.37 0 .86.068 1.106.392.187.248.213.62.076 1.106-.116.41-.714 1.508-1.453 2.67-.9 1.415-1.397 2.05-1.54 2.05-.476 0-2.193-7.613-2.24-7.78-.492-1.744-.74-2.62-2.34-2.62-1.221 0-3.943 2.229-6.178 4.17-.137.12-.253.22-.343.297a.531.531 0 00-.074.73l.417.537a.53.53 0 00.728.107l.023-.016c.723-.515 1.406-1 1.922-1.027.56-.028 1.047.848 1.626 2.93 1.104 4.047 2.781 8.87 4.503 8.87 1.799 0 3.944-1.525 6.718-5.135 2.511-3.267 3.855-5.858 3.942-7.744.065-1.424-.21-2.478-.819-3.133z" fill="#3B4044" fill-rule="nonzero"/><path d="M150 12l5 4v-3h13s3 .023 3 3-3 3-3 3h-2l-1 2h3s5 0 5-5-5-5-5-5h-13V8l-5 4z" fill="#D8D8D8"/><path fill="#3B4044" d="M195 0l4 7h-3v23h-2V7h-3z"/><path d="M217 17a2 2 0 110-4 2 2 0 010 4zm8 0a2 2 0 110-4 2 2 0 010 4zm8 0a2 2 0 110-4 2 2 0 010 4zM111.364 37.222l1.414 1.414L106.414 45l6.364 6.364-1.414 1.414L105 46.414l-6.364 6.364-1.414-1.414L103.586 45l-6.364-6.364 1.414-1.414L105 43.586z" fill="#D8D8D8"/><path fill="#373E44" d="M141.506 37.364l1.414 1.414-6.364 6.364 6.364 6.364-1.414 1.414-6.364-6.364-6.364 6.364-1.414-1.414 6.364-6.364-6.364-6.364 1.414-1.414 6.364 6.364zM239 53l-5 4v-3h-13v-2h13v-3zM181 53l5 4v-3h13v-2h-13v-3z"/></g></svg>